<svg width="32" height="32" viewBox="0 0 32 32" fill="none" xmlns="http://www.w3.org/2000/svg">
<path d="M9.33398 9.66699C8.7817 9.66699 8.33398 10.1147 8.33398 10.667C8.33398 11.2193 8.7817 11.667 9.33398 11.667V9.66699ZM16.0007 11.667C16.5529 11.667 17.0007 11.2193 17.0007 10.667C17.0007 10.1147 16.5529 9.66699 16.0007 9.66699V11.667ZM9.33398 15.0003C8.7817 15.0003 8.33398 15.4481 8.33398 16.0003C8.33398 16.5526 8.7817 17.0003 9.33398 17.0003V15.0003ZM22.6673 17.0003C23.2196 17.0003 23.6673 16.5526 23.6673 16.0003C23.6673 15.4481 23.2196 15.0003 22.6673 15.0003V17.0003ZM16.0007 20.3337C15.4484 20.3337 15.0007 20.7814 15.0007 21.3337C15.0007 21.8859 15.4484 22.3337 16.0007 22.3337V20.3337ZM22.6673 22.3337C23.2196 22.3337 23.6673 21.8859 23.6673 21.3337C23.6673 20.7814 23.2196 20.3337 22.6673 20.3337V22.3337ZM9.33398 11.667H16.0007V9.66699H9.33398V11.667ZM9.33398 17.0003H22.6673V15.0003H9.33398V17.0003ZM16.0007 22.3337H22.6673V20.3337H16.0007V22.3337Z" fill="#28303F"/>
</svg>
